<?xml version="1.0" standalone="no"?>
<!DOCTYPE svg PUBLIC "-//W3C//DTD SVG 20010904//EN"
 "http://www.w3.org/TR/2001/REC-SVG-20010904/DTD/svg10.dtd">
<svg version="1.0" xmlns="http://www.w3.org/2000/svg"
 width="256.000000pt" height="256.000000pt" viewBox="0 0 256.000000 256.000000"
 preserveAspectRatio="xMidYMid meet">
<metadata>
Created by potrace 1.14, written by Peter Selinger 2001-2017
</metadata>
<g transform="translate(0.000000,256.000000) scale(0.100000,-0.100000)"
fill="#000000" stroke="none">
<path d="M370 2528 c-39 -65 -18 -145 48 -175 51 -24 93 -18 137 20 29 25 37
41 40 73 5 43 -20 104 -44 112 -9 3 -6 -6 7 -24 35 -49 33 -102 -6 -145 -22
-24 -37 -32 -70 -34 -23 -1 -42 2 -42 7 0 5 -4 7 -8 4 -5 -3 -21 6 -37 19 -27
20 -30 28 -28 75 1 32 7 56 15 61 7 5 9 9 4 9 -6 0 -1 7 10 15 11 8 14 14 6
15 -7 0 -21 -15 -32 -32z"/>
<path d="M2295 2354 c-27 -15 -70 -38 -95 -52 -25 -15 -56 -28 -70 -30 -13 -2
-31 -8 -38 -14 -14 -12 -19 -12 -1106 -22 -416 -4 -643 -2 -651 4 -20 17 -59
15 -101 -4 -76 -34 -83 -39 -93 -68 -13 -37 8 -93 38 -103 12 -3 21 -12 22
-18 0 -7 2 -25 4 -42 1 -16 6 -129 9 -250 4 -121 8 -263 11 -315 2 -52 6 -189
10 -305 3 -116 8 -241 11 -280 2 -38 6 -186 8 -328 3 -182 7 -262 16 -272 7
-8 27 -19 44 -23 45 -13 1862 -3 1903 9 65 20 84 95 38 142 l-26 25 2 812 1
811 52 38 c28 22 79 53 113 70 66 33 87 56 98 108 14 67 -48 134 -122 133 -15
-1 -50 -12 -78 -26z m-425 -289 c-6 0 -234 -248 -262 -285 -24 -30 -79 -100
-124 -155 -118 -146 -218 -302 -291 -454 l-63 -134 -21 19 c-25 22 -126 173
-194 290 -78 135 -218 307 -260 321 -86 27 -158 -21 -158 -107 0 -33 11 -52
70 -127 79 -99 101 -133 162 -248 52 -97 169 -275 180 -275 5 0 24 -24 41 -53
92 -146 111 -171 151 -187 73 -31 149 22 189 131 50 133 299 581 340 609 7 5
119 144 160 199 32 44 87 105 182 205 l77 81 1 -742 0 -743 -537 -1 c-296 0
-658 -2 -806 -3 l-267 -2 -1 50 c0 28 -2 80 -4 116 -1 36 -6 159 -10 275 -12
395 -15 480 -20 595 -2 63 -7 210 -10 325 -4 116 -8 227 -10 248 l-4 37 77 0
c176 1 1357 13 1359 14 1 0 13 1 27 1 14 0 26 0 26 0z"/>
</g>
</svg>
